<svg width="812" height="812" viewBox="0 0 812 812" fill="none" xmlns="http://www.w3.org/2000/svg">
<g clip-path="url(#clip0_3648_7219)">
<path d="M780.081 247.96C749.233 175.068 697.798 113.133 633.016 69.3531C568.246 25.5732 490.002 -0.0126828 406.006 4.71636e-06C350.013 4.71636e-06 296.539 11.3569 247.949 31.9059C175.081 62.754 113.133 114.203 69.3657 178.971C25.5859 243.743 -0.0126769 321.996 1.06072e-05 405.994C-0.0126769 461.987 11.3569 515.45 31.9059 564.04C62.754 636.919 114.202 698.867 178.984 742.634C243.743 786.414 321.996 812 406.006 812C461.987 812 515.463 800.63 564.04 780.081C636.917 749.232 698.854 697.798 742.634 633.016C786.414 568.245 812 490.004 812 405.994C812 350.012 800.63 296.537 780.081 247.96ZM473.647 546.474C457.882 568.787 470.373 602.48 451.938 621.821C433.38 641.237 424.264 635.143 412.464 662.605C410.993 666.054 390.832 711.371 385.078 696.991C390.304 709.959 385.481 722.185 370.321 722.172C355.274 722.147 373.054 734.725 358.447 738.301C354.114 739.459 353.637 748.287 355.488 759.642C344.42 758.081 333.491 756.016 322.764 753.461C308.081 707.288 299.948 652.718 299.847 638.326C299.609 588.476 289.484 608.144 265.045 571.466C248.462 546.511 234.135 519.615 234.839 489.182C234.663 494.66 266.834 412.1 243.578 427.826C215.323 446.952 210.224 401.309 183.039 397.404C169.162 395.415 173.205 380.217 157.553 382.698C143.477 384.926 127.259 370.396 116.506 362.615C109.557 357.553 96.5107 284.901 85.8468 285.079C70.763 285.166 97.5066 335.759 92.0034 336.98C85.3679 338.314 75.1306 312.363 68.0431 290.014C70.7011 282.208 73.6335 274.502 76.8323 266.959C103.928 202.87 149.257 148.299 206.296 109.771C225.687 96.6629 246.461 85.482 268.296 76.3423C269.354 76.2899 270.423 76.2281 271.481 76.0758C291.211 73.7477 349.044 51.083 365.211 68.7488C372.01 75.9759 277.777 110.173 275.032 124.843C273.232 134.413 298.263 132.738 300.454 132.889C325.612 134.413 293.115 159.594 308.462 163.926C331.567 170.12 354.559 65.4738 372.275 118.723C379.516 140.343 410.439 102.38 412.631 128.997C414.884 156.762 440.256 163.737 392.913 171.278C349.411 178.278 384.289 195.971 355.807 210.865C328.86 224.967 305.315 231.577 286.29 256.86C264.985 285.217 263.172 284.322 254.762 319.049C250.217 337.873 227.501 306.219 236.341 294.207C233.255 298.362 206.449 285.229 203.753 292.003C198.517 305.136 184.4 298.034 173.272 305.929C159.182 315.876 145.532 347.971 159.672 363.067C170.929 375.18 209.382 337.105 211.485 350.086C213.096 360.084 197.824 367.11 199.498 377.044C201.879 391.398 225.4 372.927 225.4 384.07C225.387 391.248 215.881 430.62 236.619 423.141C247.812 419.111 250.886 427.686 257.948 425.899C267.606 423.456 273.284 400.841 284.857 402.516C298.556 404.492 319.444 410.775 333.231 414.742C355.745 421.228 354.56 440.228 380.725 444.193C407.456 448.248 396.905 472.222 393.619 485.617C390.797 497.217 518.221 483.606 473.647 546.474ZM622.174 199.723C622.185 199.723 645.871 199.988 650.894 199.208C655.918 198.426 655.755 186.603 655.706 184.085C655.668 181.53 642.106 175.46 645.443 173.824C648.791 172.187 657.165 169.781 659.645 168.132C660.805 167.364 663.712 164.833 666.847 162.026C677.197 173.067 686.855 184.778 695.757 197.078C694.12 198.111 692.433 199.346 691.212 200.58C687.926 203.917 677.801 199.56 677.801 199.56C673.394 204.269 668.999 209.015 664.568 213.764C662.389 218.813 660.223 223.887 658.032 228.948C658.032 228.948 642.936 236.439 636.175 237.232C629.413 238.013 618.321 231.943 616.57 229.376C614.884 226.807 622.185 199.696 622.174 199.723ZM735.157 545.026C733.028 550.063 730.749 555.024 728.394 559.936C726.028 552.482 723.685 545.859 721.622 542.27C716.698 533.795 710.113 523.61 718.612 503.061C727.122 482.512 713.851 456.888 707.166 450.027C700.48 443.19 700.505 438.041 707.204 427.742C713.902 417.454 705.542 414.017 698.831 414.017C692.106 414.017 687.057 401.992 678.634 403.705C670.222 405.405 638.051 414.004 626.103 412.279C614.24 410.579 576.555 374.292 576.479 365.628C576.479 356.979 578.066 324.216 581.465 319.078C584.891 313.928 603.538 290.458 610.261 280.234C616.985 269.998 627.059 256.411 635.518 254.773C644.018 253.136 682.724 246.715 694.358 243.467C706.018 240.205 704.432 246.475 707.869 253.312C710.11 253.615 712.327 253.929 714.555 254.232C714.568 254.232 723.773 256.046 729.628 260.363C730.824 261.245 732.108 262.089 733.418 262.933C752.581 306.725 763.209 355.063 763.221 405.995C763.209 455.389 753.212 502.304 735.157 545.026Z" fill="#FF0000"/>
</g>
<defs>
<clipPath id="clip0_3648_7219">
<rect width="812" height="812" fill="white"/>
</clipPath>
</defs>
</svg>
